<svg xmlns="http://www.w3.org/2000/svg" version="1.0" width="1920px" height="1920px" viewBox="0 0 1920 1920">

<g transform="translate(0.000000,1920.000000) scale(0.100000,-0.100000)" fill="url(#deoxysGradient)" stroke="none">
<path d="M9585 16668 c-4 -24 -14 -63 -22 -88 -14 -42 -42 -146 -98 -365 -41 -161 -87 -330 -91 -336 -2 -4 -10 -35 -18 -70 -8 -35 -22 -91 -31 -124 -23 -81 -33 -120 -50 -185 -14 -58 -39 -151 -56 -210 -6 -19 -16 -60 -24 -90 -7 -30 -26 -102 -43 -160 -16 -58 -32 -116 -35 -130 -2 -14 -17 -68 -32 -120 -14 -52 -33 -120 -41 -150 -8 -30 -19 -71 -25 -90 -12 -43 -37 -140 -49 -196 -5 -22 -13 -51 -18 -65 -6 -13 -15 -44 -22 -69 -7 -25 -18 -65 -25 -90 -7 -25 -22 -81 -34 -125 -63 -242 -82 -314 -92 -350 -6 -22 -15 -56 -21 -75 -6 -19 -15 -51 -19 -70 -12 -56 -58 -220 -64 -229 -4 -8 -21 -80 -30 -131 -1 -8 -5 -22 -8 -30 -7 -16 -99 -358 -122 -450 -17 -71 -79 -305 -105 -395 -11 -38 -42 -158 -70 -265 -44 -170 -66 -253 -112 -425 -6 -22 -14 -56 -18 -75 -4 -19 -15 -62 -24 -95 -10 -33 -26 -96 -37 -140 -19 -78 -126 -485 -155 -595 -8 -30 -19 -71 -24 -90 -5 -19 -21 -78 -35 -130 -15 -52 -44 -160 -65 -240 -21 -80 -56 -215 -79 -301 -22 -86 -41 -159 -41 -162 0 -4 -9 -11 -20 -17 -16 -9 -36 -6 -93 14 -40 13 -130 40 -202 60 -200 55 -277 76 -310 86 -16 5 -55 16 -85 24 -30 8 -109 30 -175 50 -66 20 -145 43 -175 52 -106 30 -195 57 -240 71 -24 8 -69 20 -100 28 -98 24 -215 56 -235 65 -11 5 -47 16 -80 25 -33 10 -80 23 -105 31 -25 8 -88 27 -140 42 -77 23 -96 32 -98 48 -3 18 10 25 95 52 124 39 203 63 323 97 52 15 106 32 120 37 14 6 63 20 110 33 47 13 123 35 170 50 47 14 132 40 190 56 109 31 246 72 315 94 22 7 60 18 85 25 25 7 63 18 85 25 22 7 65 20 95 29 30 9 75 22 100 30 25 8 64 19 86 25 36 10 43 16 47 44 3 17 15 66 27 107 71 239 130 464 130 492 0 12 -8 18 -24 18 -14 0 -27 -4 -30 -9 -3 -5 -27 -12 -52 -16 -25 -3 -78 -17 -118 -30 -39 -12 -93 -28 -121 -34 -63 -15 -591 -148 -665 -167 -30 -8 -71 -19 -90 -23 -41 -10 -62 -16 -455 -116 -165 -42 -316 -80 -335 -85 -55 -12 -231 -57 -375 -96 -78 -21 -329 -83 -445 -110 -58 -14 -148 -36 -200 -50 -154 -40 -199 -51 -310 -79 -58 -14 -121 -30 -140 -35 -19 -5 -174 -43 -345 -85 -170 -42 -335 -82 -365 -90 -30 -8 -102 -26 -160 -40 -58 -14 -125 -32 -150 -40 -25 -9 -54 -15 -66 -15 -11 0 -24 -3 -28 -7 -3 -4 -14 -8 -23 -9 -55 -8 -172 -39 -196 -51 -17 -8 -27 -21 -25 -30 4 -22 106 -55 337 -108 80 -18 227 -54 326 -80 167 -43 250 -64 350 -86 22 -4 69 -17 105 -29 36 -11 72 -20 81 -20 9 0 39 -7 65 -15 27 -8 85 -23 129 -34 44 -10 143 -35 220 -56 77 -21 156 -41 175 -45 19 -4 87 -22 150 -39 141 -37 113 -30 680 -172 25 -7 68 -18 95 -25 84 -22 218 -56 255 -64 83 -19 176 -43 195 -50 11 -5 49 -15 85 -23 36 -8 155 -38 265 -67 110 -29 219 -56 243 -61 24 -5 48 -12 54 -15 6 -4 28 -11 47 -15 20 -3 90 -21 156 -39 66 -18 138 -36 160 -40 22 -4 94 -22 160 -40 66 -17 136 -35 155 -40 53 -12 155 -38 255 -65 50 -13 122 -31 160 -40 76 -17 161 -40 212 -56 36 -11 83 -3 83 15 0 7 11 48 24 92 58 194 96 330 96 347 0 9 4 25 10 35 5 9 23 67 40 127 16 61 36 133 44 160 26 86 67 228 81 280 8 28 24 79 35 115 21 69 77 265 110 390 12 41 25 86 29 100 5 14 17 54 26 90 10 36 26 94 37 130 11 36 47 162 80 280 33 118 66 235 74 260 47 159 67 230 75 265 5 22 14 49 19 60 9 19 33 100 65 220 7 28 18 66 24 85 14 47 89 308 113 395 11 39 28 98 39 132 10 34 19 70 19 79 0 9 6 30 14 47 8 18 38 115 67 217 29 102 59 208 66 235 8 28 21 73 28 100 7 28 25 91 40 140 15 50 33 113 40 140 7 28 25 88 38 135 14 47 40 139 58 205 33 123 46 150 65 137 7 -4 32 -68 57 -142 26 -74 52 -151 58 -170 7 -19 14 -42 17 -50 3 -8 18 -51 34 -95 16 -44 32 -91 35 -105 3 -14 9 -29 13 -35 5 -5 16 -39 25 -73 9 -35 20 -71 25 -80 5 -10 53 -147 106 -307 171 -510 211 -628 247 -725 19 -52 67 -194 107 -315 40 -121 83 -248 94 -282 13 -40 26 -63 36 -63 16 0 24 25 54 155 8 33 28 105 45 160 17 55 47 156 67 225 19 69 46 163 60 210 14 47 32 110 41 140 8 30 19 68 24 84 21 67 14 110 -55 346 -20 69 -43 150 -51 180 -8 30 -27 98 -41 150 -56 210 -75 278 -94 340 -10 36 -26 92 -36 125 -9 33 -23 79 -30 103 -8 23 -14 49 -14 57 0 9 -4 23 -9 33 -7 14 -96 326 -152 537 -6 22 -21 76 -34 120 -14 44 -32 107 -41 140 -9 33 -22 80 -29 105 -7 25 -18 65 -25 90 -7 25 -16 56 -20 70 -5 14 -20 68 -35 120 -14 52 -32 115 -40 140 -7 25 -20 72 -30 105 -9 33 -21 70 -26 83 -5 13 -9 33 -9 45 0 13 -4 27 -10 33 -5 5 -14 30 -19 54 -11 51 -101 374 -156 560 -21 69 -48 166 -61 215 -20 81 -29 112 -65 235 -6 19 -15 57 -21 85 -19 95 -51 116 -63 43z"/>
<path d="M11063 11628 c-12 -16 -35 -84 -58 -168 -9 -36 -30 -108 -46 -161 -16 -53 -29 -104 -29 -113 0 -10 -5 -26 -10 -37 -6 -10 -15 -38 -19 -61 -5 -24 -24 -92 -41 -153 -17 -60 -35 -126 -39 -145 -4 -19 -13 -51 -19 -70 -7 -19 -32 -109 -57 -200 -40 -147 -61 -222 -110 -395 -7 -27 -21 -77 -30 -110 -9 -33 -20 -71 -25 -85 -5 -14 -27 -92 -50 -175 -22 -82 -49 -179 -59 -215 -10 -36 -23 -83 -29 -105 -6 -22 -29 -105 -52 -185 -23 -80 -53 -188 -66 -240 -14 -52 -31 -117 -38 -145 -8 -27 -24 -86 -36 -130 -11 -44 -34 -123 -49 -175 -16 -52 -36 -124 -46 -160 -10 -36 -26 -90 -36 -120 -9 -30 -20 -73 -24 -95 -4 -22 -13 -60 -20 -85 -8 -25 -30 -101 -49 -170 -19 -69 -57 -206 -85 -305 -28 -99 -63 -223 -77 -275 -15 -52 -32 -115 -40 -140 -7 -25 -20 -72 -28 -105 -22 -82 -82 -299 -116 -420 -16 -55 -36 -126 -45 -158 -14 -51 -19 -58 -38 -55 -19 3 -25 16 -44 88 -22 83 -80 264 -130 405 -14 39 -27 81 -30 95 -2 14 -8 34 -13 45 -5 11 -23 67 -40 125 -55 183 -224 714 -240 755 -5 11 -16 47 -26 80 -9 33 -21 65 -24 70 -4 6 -11 26 -15 45 -4 19 -31 107 -60 195 -30 88 -61 189 -71 225 -10 36 -28 92 -42 125 -13 33 -30 85 -38 115 -29 110 -66 201 -81 198 -18 -4 -51 -110 -88 -283 -7 -33 -21 -87 -30 -120 -10 -33 -21 -76 -26 -95 -17 -74 -37 -146 -48 -173 -6 -16 -11 -39 -11 -53 0 -13 -4 -32 -9 -42 -19 -36 -42 -136 -48 -200 -6 -75 2 -119 47 -277 17 -60 35 -126 40 -145 4 -19 15 -62 24 -95 10 -33 31 -112 47 -175 52 -195 57 -214 67 -245 5 -16 15 -55 22 -85 6 -30 17 -75 25 -100 11 -40 25 -93 57 -215 6 -22 17 -60 24 -85 8 -25 25 -90 39 -145 14 -55 43 -170 66 -255 23 -85 47 -177 54 -205 8 -27 26 -95 40 -150 15 -55 33 -122 40 -150 8 -27 25 -95 40 -150 15 -55 33 -122 40 -150 36 -136 93 -350 120 -450 9 -33 20 -76 25 -95 4 -19 19 -80 34 -135 15 -55 38 -140 51 -190 13 -49 40 -148 59 -220 19 -71 40 -152 46 -180 5 -27 17 -75 26 -105 27 -94 32 -113 44 -170 6 -30 14 -61 19 -69 13 -21 38 -6 44 26 3 15 12 57 21 93 9 36 21 90 27 120 6 30 15 59 20 64 5 6 9 20 9 32 0 12 11 64 25 115 14 52 34 135 46 184 12 50 30 122 41 160 32 116 129 497 138 545 4 25 13 56 18 70 13 32 34 110 76 285 19 77 49 194 66 260 17 66 38 145 45 175 12 53 44 175 135 525 101 386 113 433 139 545 5 19 16 62 26 95 9 33 21 76 25 95 4 19 25 98 45 175 58 219 65 246 79 305 8 30 32 125 54 210 106 406 125 478 133 518 5 24 11 47 14 52 3 5 30 105 60 222 91 354 162 630 180 693 9 33 29 110 45 170 41 159 91 345 100 380 28 98 73 277 80 317 5 27 12 53 16 60 4 6 11 28 15 47 4 20 14 61 22 91 36 129 59 218 67 255 29 129 50 199 64 213 15 15 20 15 67 -1 28 -10 85 -27 127 -38 43 -11 88 -24 102 -29 14 -4 102 -29 195 -55 94 -26 179 -50 190 -55 11 -4 76 -22 145 -40 162 -42 226 -59 275 -76 22 -7 117 -34 210 -59 94 -26 222 -62 285 -80 63 -19 133 -38 155 -44 40 -9 186 -50 257 -72 36 -11 54 -32 43 -49 -5 -8 -62 -28 -325 -110 -74 -23 -151 -48 -170 -55 -19 -7 -62 -21 -95 -30 -144 -41 -480 -144 -770 -235 -38 -12 -108 -33 -155 -45 -295 -82 -298 -83 -323 -187 -14 -59 -32 -125 -62 -228 -75 -263 -84 -307 -63 -315 7 -3 49 4 93 16 44 11 112 29 152 39 39 10 76 21 82 24 5 4 29 10 53 15 75 16 678 170 688 176 5 3 40 12 77 20 38 7 93 20 123 28 30 9 96 25 145 37 50 13 99 26 110 31 11 4 112 31 225 59 113 28 282 70 375 94 94 24 267 69 385 99 484 125 621 160 750 194 74 19 160 41 190 48 30 8 100 26 155 40 55 15 125 33 155 40 78 18 146 35 390 99 118 30 235 60 260 66 25 6 68 18 95 25 28 8 81 22 119 31 93 21 116 31 116 48 0 9 -19 18 -52 24 -57 11 -121 26 -178 41 -87 23 -163 42 -270 67 -63 14 -135 32 -160 40 -25 7 -135 34 -245 59 -110 26 -220 53 -245 60 -25 7 -67 18 -95 24 -75 17 -502 119 -565 136 -30 8 -140 35 -245 60 -104 25 -204 50 -221 55 -32 11 -95 25 -184 42 -30 5 -59 14 -64 19 -6 5 -19 9 -30 9 -10 0 -42 7 -70 15 -28 8 -98 25 -156 39 -148 35 -473 114 -545 132 -33 9 -87 22 -120 31 -33 8 -76 19 -95 24 -90 23 -180 45 -505 124 -192 46 -370 90 -395 96 -25 6 -61 15 -80 19 -19 4 -91 22 -160 40 -69 18 -143 36 -165 40 -22 5 -110 26 -195 49 -178 47 -165 45 -177 29z"/>
</g>
<defs>
    <linearGradient
        id="deoxysGradient"
        x1="0%"
        y1="0%"
        x2="100%"
        y2="100%"
        gradientUnits="objectBoundingBox"
        gradientTransform="translate(-0.2, 0)">
    
        <stop offset="0%" stop-color="#0066ff"/>
        <stop offset="5%" stop-color="#0066ff"/>
        <stop offset="50%" stop-color="#8000ff"/>
        <stop offset="85%" stop-color="#ff0000"/>
        <stop offset="100%" stop-color="#ff0000"/>

    </linearGradient>
</defs>
</svg>